<svg width="50" height="50" viewBox="0 0 50 50" fill="none" xmlns="http://www.w3.org/2000/svg">
<path d="M14.8989 10.012C16.1771 9.90951 17.4173 10.4783 18.1733 11.5139C18.4824 11.9374 18.6856 12.4949 18.9995 13.3254L20.7563 17.9729C20.9293 18.4304 21.0893 18.8254 21.0981 19.2356C21.1053 19.5715 21.0357 19.9052 20.895 20.2102C20.723 20.5827 20.418 20.8804 20.0767 21.2307L19.5552 21.7668C19.046 22.2893 18.9559 22.4031 18.9146 22.512C18.8696 22.6307 18.8559 22.7846 18.8794 22.9094C18.9013 23.0253 18.9622 23.1411 19.3501 23.7112C20.2502 25.034 21.1821 26.1896 22.5249 27.5325C23.8572 28.8648 25.0055 29.7924 26.3149 30.6858C26.8951 31.0816 27.0137 31.1446 27.1313 31.1663C27.2583 31.1895 27.4146 31.1745 27.5347 31.1272C27.6448 31.0838 27.7579 30.9899 28.2808 30.4592L28.7554 29.9778C29.1059 29.6221 29.4038 29.3057 29.7808 29.1252C30.0893 28.9775 30.428 28.9033 30.77 28.9084C31.1879 28.9148 31.591 29.0776 32.0581 29.2542L36.6733 30.9993C37.504 31.3133 38.0613 31.5165 38.4849 31.8254C39.5206 32.5814 40.0891 33.8217 39.9868 35.0999C39.9449 35.6225 39.7358 36.1775 39.4321 37.012C39.2239 37.584 39.0854 37.9772 38.8267 38.3635C38.522 38.8183 38.0674 39.2013 37.5903 39.4768C37.1132 39.7523 36.5545 39.9549 36.0083 39.9915C35.551 40.022 35.2374 39.9641 34.7827 39.884C29.3907 38.9344 23.7272 35.8635 18.9321 31.0686C14.1371 26.2734 11.0655 20.6085 10.1157 15.2161C10.0357 14.7616 9.97776 14.4477 10.0083 13.9905C10.0449 13.4445 10.2465 12.8854 10.522 12.4084C10.7976 11.9313 11.1814 11.4767 11.6362 11.1721C12.0225 10.9135 12.4149 10.7748 12.9868 10.5667C13.8214 10.2629 14.3763 10.0539 14.8989 10.012Z" fill="#26D367"/>
</svg>
