<svg width="150" height="150" viewBox="0 0 150 150" fill="none" xmlns="http://www.w3.org/2000/svg">
<path d="M50 25C77.6142 25 100 47.3858 100 75C100 102.614 77.6142 125 50 125C22.3858 125 0 102.614 0 75C0 47.3858 22.3858 25 50 25Z" fill="#26D367"/>
<path fill-rule="evenodd" clip-rule="evenodd" d="M150 117C150 120.771 150 122.657 148.828 123.828C147.657 125 145.771 125 142 125H138C134.229 125 132.343 125 131.172 123.828C130 122.657 130 120.771 130 117V115.002C121.643 121.279 111.256 125 100 125C72.3858 125 50 102.614 50 75C50 47.3858 72.3858 25 100 25C111.256 25 121.643 28.7208 130 34.998V33C130 29.2288 130 27.3431 131.172 26.1716C132.343 25 134.229 25 138 25H142C145.771 25 147.657 25 148.828 26.1716C150 27.3431 150 29.2288 150 33V117Z" fill="#0077FF"/>
<path d="M75 31.6895C89.945 40.3347 100 56.493 100 75C100 93.5068 89.9447 109.664 75 118.31C60.0553 109.664 50 93.5068 50 75C50 56.493 60.055 40.3347 75 31.6895Z" fill="black"/>
</svg>
