<svg width="50" height="50" viewBox="0 0 50 50" fill="none" xmlns="http://www.w3.org/2000/svg">
<path d="M27.8521 31.5625C28.7949 31.5625 29.2663 31.5625 29.5592 31.8554C29.8521 32.1483 29.8521 32.6197 29.8521 33.5625V34.8525C29.8521 35.7953 29.8521 36.2668 29.5592 36.5596C29.2663 36.8525 28.7949 36.8525 27.8521 36.8525H26.8521C25.9092 36.8525 25.4378 36.8525 25.1449 36.5596C24.8521 36.2668 24.8521 35.7953 24.8521 34.8525V33.5625C24.8521 32.6197 24.8521 32.1483 25.1449 31.8554C25.4378 31.5625 25.9092 31.5625 26.8521 31.5625H27.8521ZM27.3521 7.25C31.9333 7.25024 35.6479 10.9646 35.6479 15.5459C35.6478 17.3425 35.0736 19.0129 34.0991 20.373C33.5894 21.0845 33.0095 21.7729 32.4937 22.3838C31.9549 23.0219 31.4766 23.5859 31.0552 24.1553C30.1914 25.3224 29.8521 26.1454 29.8521 26.8467V27.3467C29.8521 28.2895 29.8521 28.7609 29.5592 29.0538C29.2663 29.3467 28.7949 29.3467 27.8521 29.3467H26.8521C25.9092 29.3467 25.4378 29.3467 25.1449 29.0538C24.8521 28.7609 24.8521 28.2895 24.8521 27.3467V26.8467C24.8521 24.5075 25.9851 22.6011 27.0356 21.1816C27.5714 20.4578 28.1623 19.7634 28.6733 19.1582C29.2073 18.5259 29.6591 17.9852 30.0347 17.4609C30.4209 16.9218 30.6478 16.2638 30.6479 15.5459C30.6479 13.726 29.1719 12.2502 27.3521 12.25C25.5322 12.2502 24.0571 13.726 24.0571 15.5459V16.0459C24.0571 16.9887 24.0571 17.4601 23.7642 17.753C23.4713 18.0459 22.9999 18.0459 22.0571 18.0459H21.0571C20.1143 18.0459 19.6429 18.0459 19.35 17.753C19.0571 17.4601 19.0571 16.9887 19.0571 16.0459V15.5459C19.0571 10.9646 22.7708 7.25024 27.3521 7.25Z" fill="#26D367"/>
<path d="M14.4374 13.4671C14.3953 12.119 15.6723 11.1166 16.9718 11.4776L30.8307 15.3273C31.7229 15.5751 32.3284 16.403 32.2941 17.3283L31.4239 40.824C31.3841 41.899 30.501 42.75 29.4252 42.75H17.291C16.2108 42.75 15.3257 41.8922 15.292 40.8125L14.4374 13.4671Z" fill="#0077FF"/>
<path fill-rule="evenodd" clip-rule="evenodd" d="M27.8525 31.5625C28.795 31.5625 29.2667 31.5626 29.5596 31.8555C29.8522 32.1484 29.8525 32.62 29.8525 33.5625V34.8525C29.8525 35.7951 29.8522 36.2667 29.5596 36.5596C29.2667 36.8525 28.7944 36.8525 27.8516 36.8525H26.8516C25.9091 36.8525 25.4374 36.8524 25.1445 36.5596C24.8519 36.2667 24.8525 35.7951 24.8525 34.8525V33.5625C24.8525 32.62 24.8519 32.1484 25.1445 31.8555C25.4374 31.5626 25.9097 31.5625 26.8525 31.5625H27.8525ZM30.8311 15.3271C31.723 15.5751 32.3281 16.4029 32.2939 17.3281L32.0879 22.8672C31.7119 23.3153 31.3678 23.7335 31.0557 24.1553C30.1919 25.3224 29.8525 26.1454 29.8525 26.8467V27.3467C29.8525 28.2892 29.8522 28.7608 29.5596 29.0537C29.2667 29.3466 28.7944 29.3467 27.8516 29.3467H26.8516C25.9091 29.3467 25.4374 29.3466 25.1445 29.0537C24.8519 28.7608 24.8525 28.2892 24.8525 27.3467V26.8467C24.8525 24.5075 25.9856 22.6011 27.0361 21.1816C27.5718 20.4579 28.1628 19.7634 28.6738 19.1582C29.2077 18.526 29.6596 17.9851 30.0352 17.4609C30.4213 16.9218 30.6483 16.2637 30.6484 15.5459C30.6484 15.4538 30.6422 15.3627 30.6348 15.2725L30.8311 15.3271ZM24.6797 13.6182C24.2881 14.1603 24.0576 14.8261 24.0576 15.5459V16.0459C24.0576 16.9884 24.0573 17.46 23.7646 17.7529C23.4718 18.0458 22.9994 18.0459 22.0566 18.0459H21.0566C20.1142 18.0459 19.6425 18.0458 19.3496 17.7529C19.057 17.46 19.0576 16.9884 19.0576 16.0459V15.5459C19.0576 14.3731 19.3013 13.2575 19.7402 12.2461L24.6797 13.6182Z" fill="black"/>
</svg>
