<svg width="250" height="50" viewBox="0 0 250 50" fill="none" xmlns="http://www.w3.org/2000/svg">
<path d="M25 0C38.8071 0 50 11.1929 50 25C50 38.8071 38.8071 50 25 50C11.1929 50 0 38.8071 0 25C0 11.1929 11.1929 0 25 0ZM25 10C16.7157 10 10 16.7157 10 25C10 33.2843 16.7157 40 25 40C33.2843 40 40 33.2843 40 25C40 16.7157 33.2843 10 25 10Z" fill="white"/>
<path fill-rule="evenodd" clip-rule="evenodd" d="M110 46C110 47.8856 110 48.8284 109.414 49.4142C108.828 50 107.886 50 106 50H104C102.114 50 101.172 50 100.586 49.4142C100 48.8284 100 47.8856 100 46V45.001C95.8216 48.1396 90.6282 50 85 50C71.1929 50 60 38.8071 60 25C60 11.1929 71.1929 1.03081e-06 85 0C90.6282 0 95.8216 1.86039 100 4.99902V4C100 2.11438 100 1.17157 100.586 0.585786C101.172 0 102.114 0 104 0H106C107.886 0 108.828 0 109.414 0.585786C110 1.17157 110 2.11438 110 4V46ZM85 10C76.7157 10 70 16.7157 70 25C70 33.2843 76.7157 40 85 40C93.2843 40 100 33.2843 100 25C100 16.7157 93.2843 10 85 10Z" fill="white"/>
<path d="M160 3.63603C160 4.98613 160 5.66118 159.828 6.3002C159.777 6.48871 159.715 6.67408 159.643 6.85536C159.397 7.46989 158.992 8.00993 158.182 9.09002L135 40H156C157.886 40 158.828 40 159.414 40.5858C160 41.1716 160 42.1144 160 44V46C160 47.8856 160 48.8284 159.414 49.4142C158.828 50 157.886 50 156 50H123.637C122.102 50 121.334 50 120.801 49.601C120.649 49.4868 120.513 49.3513 120.399 49.1987C120 48.6657 120 47.8983 120 46.3635C120 45.0129 120 44.3377 120.172 43.6984C120.223 43.5102 120.285 43.3251 120.357 43.144C120.603 42.5293 121.008 41.9891 121.818 40.9086L145 10H124C122.114 10 121.172 10 120.586 9.41421C120 8.82843 120 7.88562 120 6V4C120 2.11438 120 1.17157 120.586 0.585786C121.172 0 122.114 0 124 0H156.364C157.898 0 158.666 0 159.198 0.398762C159.351 0.513143 159.487 0.648816 159.601 0.801652C160 1.33448 160 2.10166 160 3.63603Z" fill="white"/>
<path d="M180 46C180 47.8856 180 48.8284 179.414 49.4142C178.828 50 177.886 50 176 50H174C172.114 50 171.172 50 170.586 49.4142C170 48.8284 170 47.8856 170 46V4C170 2.11438 170 1.17157 170.586 0.585786C171.172 0 172.114 0 174 0H176C177.886 0 178.828 0 179.414 0.585786C180 1.17157 180 2.11438 180 4V46Z" fill="white"/>
<path d="M226 0C227.886 0 228.828 0 229.414 0.585786C230 1.17157 230 2.11438 230 4V6C230 7.88562 230 8.82843 229.414 9.41421C228.828 10 227.886 10 226 10H205C202.239 10 200 12.2386 200 15C200 17.7614 202.239 20 205 20H215C223.284 20 230 26.7157 230 35C230 43.2843 223.284 50 215 50H194C192.114 50 191.172 50 190.586 49.4142C190 48.8284 190 47.8856 190 46V44C190 42.1144 190 41.1716 190.586 40.5858C191.172 40 192.114 40 194 40H215C217.761 40 220 37.7614 220 35C220 32.2386 217.761 30 215 30H205C196.716 30 190 23.2843 190 15C190 6.71573 196.716 0 205 0H226Z" fill="white"/>
<path d="M250 46C250 47.8856 250 48.8284 249.414 49.4142C248.828 50 247.886 50 246 50H244C242.114 50 241.172 50 240.586 49.4142C240 48.8284 240 47.8856 240 46V4C240 2.11438 240 1.17157 240.586 0.585786C241.172 0 242.114 0 244 0H246C247.886 0 248.828 0 249.414 0.585786C250 1.17157 250 2.11438 250 4V46Z" fill="white"/>
</svg>
