<svg width="50" height="50" viewBox="0 0 50 50" fill="none" xmlns="http://www.w3.org/2000/svg">
<path d="M11.0849 10.7171C11.0428 9.36903 12.3197 8.36659 13.6192 8.72756L27.4782 12.5773C28.3704 12.8251 28.9758 13.653 28.9415 14.5783L28.0713 38.074C28.0315 39.149 27.1485 40 26.0727 40H13.9385C12.8582 40 11.9732 39.1422 11.9395 38.0625L11.0849 10.7171Z" fill="#26D367"/>
<path d="M21 27.6043C21 26.6669 21.6511 25.8553 22.5661 25.652L36.3009 22.5998C37.6308 22.3043 38.8604 23.3957 38.7249 24.7512L37.1801 40.199C37.0779 41.2214 36.2175 42 35.19 42H23C21.8954 42 21 41.1046 21 40V27.6043Z" fill="#0077FF"/>
<path d="M28.0713 38.0742C28.0314 39.1492 27.148 40 26.0723 40H21V27.6045C21 26.6671 21.6513 25.8557 22.5664 25.6523L28.5801 24.3154L28.0713 38.0742Z" fill="black"/>
</svg>
