<svg width="50" height="50" viewBox="0 0 50 50" fill="none" xmlns="http://www.w3.org/2000/svg">
<path d="M18.9487 12.8235C18.1939 12.8235 17.4557 12.9873 16.7817 13.2942V20.2258C16.7817 20.763 16.8978 21.2942 17.1216 21.7825L24.1313 37.0745C24.7021 37.2102 25.298 37.2102 25.8687 37.0745L32.8774 21.7825C33.1013 21.2942 33.2173 20.763 33.2173 20.2258V13.2942C32.6209 13.0228 31.9749 12.8633 31.311 12.8303L31.0513 12.8235H18.9487Z" fill="#0077FF"/>
<path d="M16.7837 13.2937C16.2188 13.5507 15.6987 13.908 15.2515 14.3552L11.0942 18.5125C9.68015 19.9265 9.6306 22.2033 10.9819 23.6775L22.2466 35.9666C22.7723 36.5401 23.4332 36.9078 24.1323 37.074L17.1226 21.782C16.8989 21.2939 16.7838 20.7632 16.7837 20.2263V13.2937Z" fill="#26D367"/>
<path d="M33.2173 13.2935C33.7821 13.5505 34.302 13.908 34.7493 14.3552L38.9064 18.5121C40.3205 19.9262 40.37 22.2033 39.0187 23.6775L27.7536 35.9665C27.2278 36.5401 26.5674 36.9097 25.8682 37.0758L32.8778 21.7823C33.1016 21.294 33.2173 20.763 33.2173 20.2259V13.2935Z" fill="black"/>
</svg>
