<svg width="50" height="50" viewBox="0 0 50 50" fill="none" xmlns="http://www.w3.org/2000/svg">
<rect x="10" y="10" width="24" height="24" rx="4" fill="#26D367"/>
<path d="M22.8223 40H20C17.7909 40 16 38.2091 16 36V33.1777L22.8223 40ZM32.7217 40H28.4795L16 27.5205V23.2773L32.7217 40ZM39.8174 37.1963C39.5039 38.1977 38.8075 39.0295 37.8994 39.5205L16.4785 18.0996C16.9694 17.1918 17.8017 16.4952 18.8027 16.1816L39.8174 37.1963ZM40 27.4785V31.7217L24.2783 16H28.5215L40 27.4785ZM36 16C38.2091 16 40 17.7909 40 20V21.8223L34.1777 16H36Z" fill="#0077FF"/>
<path d="M16.8223 34H16V33.1777L16.8223 34ZM26.7217 34H22.4795L16 27.5205V23.2773L26.7217 34ZM33.8174 31.1963C33.5039 32.1977 32.8075 33.0295 31.8994 33.5205L16.4785 18.0996C16.9694 17.1918 17.8017 16.4952 18.8027 16.1816L33.8174 31.1963ZM34 21.4785V25.7217L24.2783 16H28.5215L34 21.4785Z" fill="black"/>
</svg>
