<svg width="50" height="50" viewBox="0 0 50 50" fill="none" xmlns="http://www.w3.org/2000/svg">
<rect x="10.75" y="11.7502" width="24" height="24" rx="4" fill="#0077FF"/>
<path d="M18.25 9.75024C19.0784 9.75024 19.75 10.4218 19.75 11.2502V14.2502C19.75 15.0787 19.0784 15.7502 18.25 15.7502C17.4216 15.7502 16.75 15.0787 16.75 14.2502V11.2502C16.75 10.4218 17.4216 9.75024 18.25 9.75024ZM27.25 9.75024C28.0784 9.75024 28.75 10.4218 28.75 11.2502V14.2502C28.75 15.0787 28.0784 15.7502 27.25 15.7502C26.4216 15.7502 25.75 15.0787 25.75 14.2502V11.2502C25.75 10.4218 26.4216 9.75024 27.25 9.75024Z" fill="#26D367"/>
<path d="M19.75 14.2502C19.75 15.0787 19.0784 15.7502 18.25 15.7502C17.4216 15.7502 16.75 15.0787 16.75 14.2502V11.7502H19.75V14.2502ZM28.75 14.2502C28.75 15.0787 28.0784 15.7502 27.25 15.7502C26.4216 15.7502 25.75 15.0787 25.75 14.2502V11.7502H28.75V14.2502Z" fill="black"/>
<path d="M33.8906 21.3967C34.9142 20.0941 36.8007 19.8675 38.1035 20.8908C39.4062 21.9144 39.6327 23.8009 38.6093 25.1037L27.6093 39.1037C27.0681 39.7925 26.2521 40.2101 25.3769 40.2473C24.5019 40.2843 23.6542 39.9374 23.0566 39.2971L16.0566 31.7971C14.9263 30.5858 14.9919 28.6873 16.2031 27.5568C17.4143 26.4266 19.3129 26.4923 20.4433 27.7033L25.0537 32.6428L33.8906 21.3967Z" fill="#26D367"/>
<path d="M34.7495 30.0176L30.2455 35.75H19.7475L16.058 31.7969C14.9278 30.5856 14.9934 28.6871 16.2045 27.5566C17.4158 26.4264 19.3143 26.4921 20.4448 27.7031L25.0551 32.6426L33.892 21.3965C34.1351 21.0871 34.4284 20.8409 34.7495 20.6553V30.0176Z" fill="black"/>
</svg>
