<svg width="50" height="50" viewBox="0 0 50 50" fill="none" xmlns="http://www.w3.org/2000/svg">
<path d="M10.3726 15.9052C10.1158 14.664 11.0636 13.5 12.3312 13.5H26.223C27.1819 13.5 28.0059 14.1806 28.187 15.1223L32.4915 37.5057C32.7023 38.6021 31.9746 39.6589 30.875 39.8529L17.7876 42.1625C16.7223 42.3505 15.7007 41.6574 15.4815 40.5981L10.3726 15.9052Z" fill="#26D367"/>
<path fill-rule="evenodd" clip-rule="evenodd" d="M26.9894 26.6304C28.4243 27.4589 28.9159 29.2936 28.0875 30.7285C27.8011 31.2245 27.3943 31.6071 26.9257 31.862C25.7419 32.5056 24.25 32.7205 23.2819 33.6576C23.2594 33.6792 23.2245 33.6514 23.2401 33.6245L25.2059 30.2196C25.2749 30.1 25.234 29.9471 25.1144 29.878C24.9949 29.8092 24.8419 29.85 24.7729 29.9696L22.8081 33.3728C22.7922 33.4003 22.7499 33.3835 22.7576 33.3527C23.0844 32.0464 22.5248 30.6483 22.4902 29.3023C22.4765 28.7687 22.6049 28.2247 22.8913 27.7285C23.7197 26.2937 25.5546 25.8022 26.9894 26.6304ZM36.9894 9.30994C38.8441 10.3808 39.3691 12.8194 38.1191 14.5584L29.2495 26.8956C28.9496 27.3125 28.3831 27.4349 27.9383 27.1783L26.0413 26.0831C25.5964 25.8262 25.4185 25.274 25.6297 24.8058L31.8801 10.9563C32.761 9.00436 35.1347 8.2393 36.9894 9.30994Z" fill="#0077FF"/>
<path fill-rule="evenodd" clip-rule="evenodd" d="M22.8916 27.7285C23.72 26.2938 25.5545 25.8026 26.9893 26.6309C28.424 27.4593 28.9162 29.2937 28.0879 30.7285C27.8016 31.2245 27.3945 31.6074 26.9258 31.8623C25.7422 32.5058 24.2504 32.7204 23.2822 33.6572C23.2598 33.6788 23.2247 33.651 23.2402 33.624L25.2061 30.2197C25.2751 30.1002 25.2338 29.947 25.1143 29.8779C24.9947 29.8092 24.8414 29.8503 24.7725 29.9697L22.8076 33.373C22.7916 33.4 22.7502 33.3832 22.7578 33.3525C23.0845 32.0465 22.525 30.6486 22.4902 29.3027C22.4765 28.7692 22.6052 28.2247 22.8916 27.7285ZM30.1963 25.5762L29.249 26.8955C28.9493 27.3122 28.3832 27.435 27.9385 27.1787L26.041 26.083C25.5963 25.8261 25.4187 25.2738 25.6299 24.8057L28.7275 17.9395L30.1963 25.5762Z" fill="black"/>
</svg>
