<svg width="50" height="50" viewBox="0 0 50 50" fill="none" xmlns="http://www.w3.org/2000/svg">
<path d="M11.7542 18.6826C11.6887 17.896 12.0919 17.1444 12.7835 16.764L28.4797 8.13112C29.8572 7.37352 31.53 8.42816 31.4403 9.99766L29.7542 39.5035C29.6938 40.562 28.8178 41.3894 27.7575 41.3894H15.4867C14.4466 41.3894 13.58 40.5921 13.4937 39.5555L11.7542 18.6826Z" fill="#0077FF"/>
<path d="M28.4807 29.7064C29.4709 28.9558 30.8819 29.1501 31.6326 30.1401L39.1098 40.0015C39.8602 40.9917 39.666 42.4027 38.6761 43.1534C37.686 43.9041 36.2746 43.7104 35.5238 42.7206L28.0466 32.8592C27.2959 31.869 27.4905 30.4572 28.4807 29.7064Z" fill="#26D367"/>
<path d="M14.8872 11.7772C19.8382 8.02355 26.8942 8.99441 30.648 13.9453C34.4017 18.8963 33.4317 25.9526 28.4807 29.7064C23.5297 33.4602 16.4725 32.4898 12.7187 27.5388C8.96508 22.5877 9.93623 15.5309 14.8872 11.7772Z" fill="#26D367"/>
<path fill-rule="evenodd" clip-rule="evenodd" d="M14.8866 11.7778C18.5532 8.99794 23.3736 8.81079 27.1532 10.9106L15.2958 17.4331C14.293 17.9846 13.7086 19.0747 13.8036 20.2153L14.5732 29.4594C13.8959 28.9061 13.2714 28.2662 12.7197 27.5385C8.96604 22.5876 9.93598 15.5317 14.8866 11.7778Z" fill="black"/>
<path d="M19.4331 18.8894V13.8894L20.9331 12.8894L21.9331 15.8894L24.9331 15.3894L21.4331 22.3894L22.4331 18.3894L19.4331 18.8894Z" fill="black"/>
</svg>
