<svg width="50" height="50" viewBox="0 0 50 50" fill="none" xmlns="http://www.w3.org/2000/svg">
<path d="M31.25 9.2251C31.3331 9.22347 31.4165 9.22217 31.5 9.22217C31.7181 9.22217 31.935 9.22773 32.1504 9.23877C32.1504 8.28489 32.1504 7.80795 32.4433 7.51506C32.7362 7.22217 33.2076 7.22217 34.1504 7.22217H35.1504C36.0932 7.22217 36.5646 7.22217 36.8575 7.51506C37.1504 7.80795 37.1504 8.27936 37.1504 9.22217V10.5728C41.214 12.6362 44 16.8526 44 21.7222V22.2222C44 23.165 44 23.6364 43.7071 23.9293C43.4142 24.2222 42.9428 24.2222 42 24.2222H41C40.0572 24.2222 39.5858 24.2222 39.2929 23.9293C39 23.6364 39 23.165 39 22.2222V21.7222C39 19.8345 38.3015 18.1108 37.1504 16.7925V22.2222C37.1504 23.165 37.1504 23.6364 36.8575 23.9293C36.5646 24.2222 36.0932 24.2222 35.1504 24.2222H34.1504C33.2076 24.2222 32.7362 24.2222 32.4433 23.9293C32.1504 23.6364 32.1504 23.165 32.1504 22.2222V14.2515C31.936 14.233 31.7192 14.2222 31.5 14.2222C31.4163 14.2222 31.333 14.2253 31.25 14.228V22.2222C31.25 23.165 31.25 23.6364 30.9571 23.9293C30.6642 24.2222 30.1928 24.2222 29.25 24.2222H28.25C27.3072 24.2222 26.8358 24.2222 26.5429 23.9293C26.25 23.6364 26.25 23.165 26.25 22.2222V16.3667C24.8617 17.7279 24 19.6243 24 21.7222C24 25.8643 27.3579 29.2222 31.5 29.2222H42C42.9428 29.2222 43.4142 29.2222 43.7071 29.5151C44 29.808 44 30.2794 44 31.2222V32.2222C44 33.165 44 33.6364 43.7071 33.9293C43.4142 34.2222 42.9428 34.2222 42 34.2222H21C20.0572 34.2222 19.5858 34.2222 19.2929 33.9293C19 33.6364 19 33.165 19 32.2222V31.2222C19 30.2794 19 29.808 19.2929 29.5151C19.5858 29.2222 20.0572 29.2222 21 29.2222H21.5C19.9306 27.1329 19 24.5364 19 21.7222C19 16.6941 21.9697 12.3615 26.25 10.3774V9.22217C26.25 8.27936 26.25 7.80795 26.5429 7.51506C26.8358 7.22217 27.3072 7.22217 28.25 7.22217H29.25C30.1928 7.22217 30.6642 7.22217 30.9571 7.51506C31.25 7.80795 31.25 8.28034 31.25 9.2251Z" fill="#0077FF"/>
<path d="M39 37.7883V21.7091C39 20.7044 37.3127 20.0465 36.4488 20.5594C33.8943 22.0757 29.3503 22.9876 22.5 18.2224C13.8212 12.1852 8.84439 15.2603 6.92488 17.1324C6.25399 17.7867 6 18.7193 6 19.6564V35.7356C6 36.7403 7.68734 37.3981 8.55127 36.8853C11.1058 35.3688 15.6497 34.4568 22.5 39.222C31.1787 45.2591 36.1555 42.1844 38.0751 40.3124C38.746 39.6581 39 38.7255 39 37.7883Z" fill="#26D367"/>
<path fill-rule="evenodd" clip-rule="evenodd" d="M20.0518 16.7012C20.8323 17.1277 21.6488 17.6305 22.5 18.2227C23.1407 18.6683 23.7617 19.0635 24.3623 19.4141C24.1273 20.1412 24 20.9172 24 21.7227C24.0002 25.8646 27.358 29.2227 31.5 29.2227H39V34.2227H21C20.0574 34.2227 19.5859 34.2224 19.293 33.9297C19.0001 33.6368 19 33.1652 19 32.2227V31.2227C19 30.2798 19.0001 29.8075 19.293 29.5146C19.5859 29.222 20.0575 29.2227 21 29.2227H21.5C19.9307 27.1335 19.0001 24.5367 19 21.7227C19 19.9362 19.3764 18.2379 20.0518 16.7012ZM26.25 20.3994C28.1388 21.2683 29.8016 21.6665 31.25 21.7559V22.2227C31.25 23.1652 31.2499 23.6368 30.957 23.9297C30.6641 24.2224 30.1926 24.2227 29.25 24.2227H28.25C27.3074 24.2227 26.8359 24.2224 26.543 23.9297C26.2501 23.6368 26.25 23.1652 26.25 22.2227V20.3994ZM37.1504 22.2227C37.1504 23.1652 37.1503 23.6368 36.8574 23.9297C36.5645 24.2224 36.093 24.2227 35.1504 24.2227H34.1504C33.2078 24.2227 32.7363 24.2224 32.4434 23.9297C32.1505 23.6368 32.1504 23.1652 32.1504 22.2227V21.7725C33.9502 21.7252 35.3757 21.1968 36.4492 20.5596C36.6492 20.4409 36.8933 20.3872 37.1504 20.3838V22.2227Z" fill="black"/>
</svg>
