<svg width="50" height="50" viewBox="0 0 50 50" fill="none" xmlns="http://www.w3.org/2000/svg">
<path d="M24.8359 5.99615C25.9336 4.34967 28.5 5.12674 28.5 7.10555V28.5C28.5 29.6046 27.6046 30.5 26.5 30.5H12.237C10.6396 30.5 9.68686 28.7197 10.5729 27.3906L24.8359 5.99615Z" fill="#26D367"/>
<path d="M25.1641 44.0039C24.0665 45.6503 21.5 44.8733 21.5 42.8944V21.5C21.5 20.3954 22.3954 19.5 23.5 19.5H37.763C39.3604 19.5 40.3131 21.2803 39.4271 22.6094L25.1641 44.0039Z" fill="#0077FF"/>
<path d="M28.5 28.5C28.5 29.6046 27.6046 30.5 26.5 30.5H21.5V21.5C21.5 20.3954 22.3954 19.5 23.5 19.5H28.5V28.5Z" fill="black"/>
</svg>
